<svg xmlns="http://www.w3.org/2000/svg" viewBox="0 0 48 48"><title>NineDeploy logo</title>
  <defs>
    <linearGradient id="shell" x1="0" y1="0" x2="0" y2="1">
      <stop offset="0" stop-color="#2A3B52"/>
      <stop offset="1" stop-color="#16202E"/>
    </linearGradient>
    <linearGradient id="gloss" x1="0" y1="0" x2="1" y2="1">
      <stop offset="0" stop-color="#7CE4DC"/>
      <stop offset="1" stop-color="#4ECDC4"/>
    </linearGradient>
    <linearGradient id="gloss-dim" x1="0" y1="0" x2="1" y2="1">
      <stop offset="0" stop-color="#4ECDC4"/>
      <stop offset="1" stop-color="#17948A"/>
    </linearGradient>
  </defs>
  <polygon points="24,3 43,14 43,34 24,45 5,34 5,14" fill="url(#shell)" stroke="#16202E" stroke-width="3.5" stroke-linejoin="round"/>
  <path d="M24 4.4 41.8 14.6 M24 4.4 6.2 14.6" fill="none" stroke="#4ECDC4" stroke-width="1.4" stroke-linecap="round" opacity="0.55"/>
  <path d="M8 37 q-2.5 5.5 5 5.5" fill="none" stroke="#16202E" stroke-width="3" stroke-linecap="round"/>
  <rect x="11" y="12" width="26" height="22" rx="3.5" fill="#FFFFFF"/>
  <path d="M11 15.5 A3.5 3.5 0 0 1 14.5 12 H33.5 A3.5 3.5 0 0 1 37 15.5 V17.5 H11 Z" fill="#1E2A3A"/>
  <circle cx="14.6" cy="14.8" r="1.15" fill="#FF5C87"/>
  <circle cx="18.1" cy="14.8" r="1.15" fill="#FFB454"/>
  <circle cx="21.6" cy="14.8" r="1.15" fill="#4ECDC4"/>
  <rect x="13.5" y="20" width="2.2" height="11" rx="1.1" fill="#22324E" opacity="0.85"/>
  <rect x="17.8" y="20" width="8.1" height="4.9" rx="1.3" fill="url(#gloss)"/>
  <rect x="27.6" y="20" width="8.1" height="4.9" rx="1.3" fill="url(#gloss-dim)"/>
  <rect x="17.8" y="26.2" width="8.1" height="4.9" rx="1.3" fill="url(#gloss-dim)"/>
  <rect x="27.6" y="26.2" width="8.1" height="4.9" rx="1.3" fill="url(#gloss)"/>
</svg>
